<svg width="44" height="44" viewBox="0 0 44 44" fill="none" xmlns="http://www.w3.org/2000/svg">
<path d="M14.5 14V30L26.5 22L14.5 14ZM28.5 14V30H31.5V14H28.5ZM22 43.4019C18.998 43.4019 16.1769 42.8319 13.5366 41.6918C10.8964 40.5533 8.59968 39.0074 6.6466 37.0543C4.69351 35.1013 3.14768 32.8046 2.00911 30.1643C0.869084 27.524 0.299072 24.7029 0.299072 21.7009C0.299072 18.699 0.869084 15.8779 2.00911 13.2376C3.14768 10.5973 4.69351 8.30061 6.6466 6.34752C8.59968 4.39444 10.8964 2.84789 13.5366 1.70786C16.1769 0.569288 18.998 0 22 0C25.002 0 27.8231 0.569288 30.4634 1.70786C33.1037 2.84789 35.4003 4.39444 37.3534 6.34752C39.3065 8.30061 40.8523 10.5973 41.9909 13.2376C43.1309 15.8779 43.7009 18.699 43.7009 21.7009C43.7009 24.7029 43.1309 27.524 41.9909 30.1643C40.8523 32.8046 39.3065 35.1013 37.3534 37.0543C35.4003 39.0074 33.1037 40.5533 30.4634 41.6918C27.8231 42.8319 25.002 43.4019 22 43.4019ZM22 39.0617C26.8104 39.0617 30.9068 37.3712 34.2892 33.9902C37.6703 30.6077 39.3608 26.5113 39.3608 21.7009C39.3608 16.8906 37.6703 12.7941 34.2892 9.4117C30.9068 6.03069 26.8104 4.34019 22 4.34019C17.1896 4.34019 13.0939 6.03069 9.71294 9.4117C6.33048 12.7941 4.63926 16.8906 4.63926 21.7009C4.63926 26.5113 6.33048 30.6077 9.71294 33.9902C13.0939 37.3712 17.1896 39.0617 22 39.0617Z" fill="#FFFDF2"/>
</svg>
